<svg width="661" height="406" viewBox="0 0 661 406" fill="none" xmlns="http://www.w3.org/2000/svg">
<path d="M9.38 76.92C9.38 28.34 43.89 0.209991 85.87 0.209991C114 0.209991 133.39 11.93 145.32 25.78L127.42 42.61C117.62 31.53 103.34 24.5 86.08 24.5C58.17 24.5 37.93 43.04 37.93 76.06C37.93 109.08 58.17 128.05 88 128.05C100.57 128.05 114 124.64 122.31 116.97V91.19H86.94V68.6H149.16V127.83C133.39 144.02 111.02 152.33 86.94 152.33C43.9 152.33 9.38 125.7 9.38 76.9V76.92Z" fill="#FFFEF8"/>
<path d="M169.17 98.65C169.17 65.84 193.46 44.53 225 44.53C256.54 44.53 280.83 65.84 280.83 98.65C280.83 131.46 256.33 152.13 225 152.13C193.67 152.13 169.17 131.25 169.17 98.65ZM252.7 98.23C252.7 80.54 242.47 66.7 225 66.7C207.53 66.7 197.3 80.55 197.3 98.23C197.3 115.91 207.1 129.98 225 129.98C242.9 129.98 252.7 116.13 252.7 98.23Z" fill="#FFFEF8"/>
<path d="M301.7 2.76999H329.4V126.35H380.75V149.79H301.7V2.76999Z" fill="#FFFEF8"/>
<path d="M395.45 15.13C395.45 6.39 402.27 0 411.86 0C421.45 0 428.27 6.39 428.27 15.13C428.27 23.87 421.45 30.26 411.86 30.26C402.27 30.26 395.45 24.08 395.45 15.13ZM398.21 46.88H425.48V149.79H398.21V46.88Z" fill="#FFFEF8"/>
<path d="M439.12 46.88H468.31L494.73 120.82L521.15 46.88H550.34L508.79 149.79H480.67L439.12 46.88Z" fill="#FFFEF8"/>
<path d="M554.39 99.51C554.39 66.7 578.04 44.54 609.15 44.54C640.26 44.54 658.8 65.42 658.8 93.76C658.8 98.02 658.37 105.91 658.16 108.04H583.58C586.56 123.81 598.5 131.05 612.98 131.05C626.19 131.05 637.48 125.51 643.24 119.54L654.32 134.67C648.57 141.06 631.1 152.14 608.72 152.14C579.32 152.14 554.39 133.18 554.39 99.51ZM607.66 64.99C591.89 64.99 585.07 76.92 582.94 88.85H631.73C631.52 78.2 624.91 64.99 607.65 64.99H607.66Z" fill="#FFFEF8"/>
<path d="M93 243.675C93 209.619 117.191 188.153 147.806 188.153C168.477 188.153 180.411 197.021 184.7 201.371L177.659 218.012C174.598 213.969 162.657 205.882 147.655 205.882C129.283 205.882 113.513 218.012 113.513 243.361C113.513 266.534 127.753 281.46 148.877 281.46C162.959 281.46 172.759 275.395 179.039 268.549L186.08 283.942C180.109 290.474 168.628 299.182 147.806 299.182C116.882 299.182 93 277.723 93 243.66L93 243.675Z" fill="black"/>
<path d="M195.255 276.023C195.255 259.382 210.106 253.63 225.417 252.543L243.178 251.295V249.273C243.178 240.565 237.358 235.434 226.487 235.434C219.137 235.434 212.096 238.237 205.666 242.12L199.544 228.435C209.495 222.684 219.295 220.501 229.397 220.501C251.44 220.501 262.771 230.924 262.771 254.251V297.328H243.939V288.62C240.879 294.065 232.149 299.043 220.976 299.043C206.736 299.043 195.255 290.803 195.255 276.023ZM243.329 277.271V263.272L230.317 264.206C219.906 264.987 215.164 268.403 215.164 274.782C215.164 281.161 220.215 285.511 227.256 285.511C234.297 285.511 240.728 281 243.329 277.271Z" fill="black"/>
<path d="M280.374 222.216H299.205V234.347C305.944 224.085 315.127 220.509 324.927 220.509C346.51 220.509 359.831 237.77 359.831 259.856C359.831 281.942 346.05 299.043 323.547 299.043C313.596 299.043 305.485 295.313 299.665 287.226C299.816 289.401 299.974 293.605 299.974 297.649V325.8H280.381V222.224L280.374 222.216ZM339.62 259.542C339.62 246.791 331.968 236.683 319.258 236.683C307.468 236.683 299.356 245.704 299.356 259.542C299.356 271.986 307.317 282.869 319.869 282.869C332.421 282.869 339.62 271.979 339.62 259.542Z" fill="black"/>
<path d="M372.067 199.043C372.067 192.664 376.967 188 383.857 188C390.747 188 395.647 192.664 395.647 199.043C395.647 205.422 390.747 210.086 383.857 210.086C376.967 210.086 372.067 205.575 372.067 199.043ZM374.057 222.216H393.65V297.335H374.057V222.216Z" fill="black"/>
<path d="M415.7 272.446V237.609H405.138V222.216H415.7V200.758H435.293V222.216H452.436V237.609H435.293V269.176C435.293 278.818 436.824 282.862 444.174 282.862C447.084 282.862 449.685 282.081 451.524 281.154L452.594 296.547C448.305 298.101 443.254 299.036 438.052 299.036C420.14 299.036 415.7 289.241 415.7 272.439V272.446Z" fill="black"/>
<path d="M462.236 276.023C462.236 259.382 477.088 253.63 492.398 252.543L510.159 251.295V249.273C510.159 240.565 504.34 235.434 493.476 235.434C486.126 235.434 479.085 238.237 472.654 242.12L466.533 228.435C476.484 222.684 486.284 220.501 496.386 220.501C518.429 220.501 529.76 230.924 529.76 254.251V297.328H510.928V288.62C507.867 294.065 499.138 299.043 487.965 299.043C473.725 299.043 462.244 290.803 462.244 276.023H462.236ZM510.303 277.271V263.272L497.291 264.206C486.881 264.987 482.138 268.403 482.138 274.782C482.138 281.161 487.189 285.511 494.231 285.511C501.272 285.511 507.702 281 510.303 277.271Z" fill="black"/>
<path d="M548.117 190.022H567.71V297.328H548.117V190.022Z" fill="black"/>
<path d="M93 243.675C93 209.619 117.191 188.153 147.806 188.153C168.477 188.153 180.411 197.021 184.7 201.371L177.659 218.012C174.598 213.969 162.657 205.882 147.655 205.882C129.283 205.882 113.513 218.012 113.513 243.361C113.513 266.534 127.753 281.46 148.877 281.46C162.959 281.46 172.759 275.395 179.039 268.549L186.08 283.942C180.109 290.474 168.628 299.182 147.806 299.182C116.882 299.182 93 277.723 93 243.66L93 243.675Z" fill="url(#paint0_linear_1_2)"/>
<path d="M195.255 276.023C195.255 259.382 210.106 253.63 225.417 252.543L243.178 251.295V249.273C243.178 240.565 237.358 235.434 226.487 235.434C219.137 235.434 212.096 238.237 205.666 242.12L199.544 228.435C209.495 222.684 219.295 220.501 229.397 220.501C251.44 220.501 262.771 230.924 262.771 254.251V297.328H243.939V288.62C240.879 294.065 232.149 299.043 220.976 299.043C206.736 299.043 195.255 290.803 195.255 276.023ZM243.329 277.271V263.272L230.317 264.206C219.906 264.987 215.164 268.403 215.164 274.782C215.164 281.161 220.215 285.511 227.256 285.511C234.297 285.511 240.728 281 243.329 277.271Z" fill="url(#paint1_linear_1_2)"/>
<path d="M280.374 222.216H299.205V234.347C305.944 224.085 315.127 220.509 324.927 220.509C346.51 220.509 359.831 237.77 359.831 259.856C359.831 281.942 346.05 299.043 323.547 299.043C313.596 299.043 305.485 295.313 299.665 287.226C299.816 289.401 299.974 293.605 299.974 297.649V325.8H280.381V222.224L280.374 222.216ZM339.62 259.542C339.62 246.791 331.968 236.683 319.258 236.683C307.468 236.683 299.356 245.704 299.356 259.542C299.356 271.986 307.317 282.869 319.869 282.869C332.421 282.869 339.62 271.979 339.62 259.542Z" fill="url(#paint2_linear_1_2)"/>
<path d="M372.067 199.043C372.067 192.664 376.967 188 383.857 188C390.747 188 395.647 192.664 395.647 199.043C395.647 205.422 390.747 210.086 383.857 210.086C376.967 210.086 372.067 205.575 372.067 199.043ZM374.057 222.216H393.65V297.335H374.057V222.216Z" fill="url(#paint3_linear_1_2)"/>
<path d="M415.7 272.446V237.609H405.138V222.216H415.7V200.758H435.293V222.216H452.436V237.609H435.293V269.176C435.293 278.818 436.824 282.862 444.174 282.862C447.084 282.862 449.685 282.081 451.524 281.154L452.594 296.547C448.305 298.101 443.254 299.036 438.052 299.036C420.14 299.036 415.7 289.241 415.7 272.439V272.446Z" fill="url(#paint4_linear_1_2)"/>
<path d="M462.236 276.023C462.236 259.382 477.088 253.63 492.398 252.543L510.159 251.295V249.273C510.159 240.565 504.34 235.434 493.476 235.434C486.126 235.434 479.085 238.237 472.654 242.12L466.533 228.435C476.484 222.684 486.284 220.501 496.386 220.501C518.429 220.501 529.76 230.924 529.76 254.251V297.328H510.928V288.62C507.867 294.065 499.138 299.043 487.965 299.043C473.725 299.043 462.244 290.803 462.244 276.023H462.236ZM510.303 277.271V263.272L497.291 264.206C486.881 264.987 482.138 268.403 482.138 274.782C482.138 281.161 487.189 285.511 494.231 285.511C501.272 285.511 507.702 281 510.303 277.271Z" fill="url(#paint5_linear_1_2)"/>
<path d="M548.117 190.022H567.71V297.328H548.117V190.022Z" fill="url(#paint6_linear_1_2)"/>
<defs>
<linearGradient id="paint0_linear_1_2" x1="278.779" y1="370.979" x2="407.396" y2="110.78" gradientUnits="userSpaceOnUse">
<stop stop-color="#DB9517"/>
<stop offset="0.1" stop-color="#DE9F2C"/>
</linearGradient>
<linearGradient id="paint1_linear_1_2" x1="278.779" y1="370.979" x2="407.396" y2="110.78" gradientUnits="userSpaceOnUse">
<stop stop-color="#DB9517"/>
<stop offset="0.1" stop-color="#DE9F2C"/>
</linearGradient>
<linearGradient id="paint2_linear_1_2" x1="278.779" y1="370.979" x2="407.396" y2="110.78" gradientUnits="userSpaceOnUse">
<stop stop-color="#DB9517"/>
<stop offset="0.1" stop-color="#DE9F2C"/>
</linearGradient>
<linearGradient id="paint3_linear_1_2" x1="278.779" y1="370.979" x2="407.396" y2="110.78" gradientUnits="userSpaceOnUse">
<stop stop-color="#DB9517"/>
<stop offset="0.1" stop-color="#DE9F2C"/>
</linearGradient>
<linearGradient id="paint4_linear_1_2" x1="278.779" y1="370.979" x2="407.396" y2="110.78" gradientUnits="userSpaceOnUse">
<stop stop-color="#DB9517"/>
<stop offset="0.1" stop-color="#DE9F2C"/>
</linearGradient>
<linearGradient id="paint5_linear_1_2" x1="278.779" y1="370.979" x2="407.396" y2="110.78" gradientUnits="userSpaceOnUse">
<stop stop-color="#DB9517"/>
<stop offset="0.1" stop-color="#DE9F2C"/>
</linearGradient>
<linearGradient id="paint6_linear_1_2" x1="278.778" y1="370.979" x2="407.395" y2="110.78" gradientUnits="userSpaceOnUse">
<stop stop-color="#DB9517"/>
<stop offset="0.1" stop-color="#DE9F2C"/>
</linearGradient>
</defs>
</svg>
