<svg xmlns="http://www.w3.org/2000/svg" width="202" height="41.236" viewBox="0 0 202 41.236">
  <g id="Grupo_65" data-name="Grupo 65" transform="translate(0 0)">
    <g id="Grupo_3" data-name="Grupo 3">
      <path id="Caminho_1" data-name="Caminho 1" d="M23.85.266l-14.7.04A9.176,9.176,0,0,0,0,9.508l.063,22.97A108.335,108.335,0,0,0,23.85.266" transform="translate(0 -0.219)" fill="#012957"/>
      <path id="Caminho_2" data-name="Caminho 2" d="M41.475,8.6,41.451,0,36.139.016A108.01,108.01,0,0,1,.43,37.147l.011,4.09,4.844-.013A107.747,107.747,0,0,0,41.475,8.6" transform="translate(-0.353 -0.001)" fill="#012957"/>
      <path id="Caminho_3" data-name="Caminho 3" d="M64.007,141.062,84.62,141a9.176,9.176,0,0,0,9.151-9.2l-.028-10.257a107.14,107.14,0,0,1-29.736,19.516" transform="translate(-52.585 -99.857)" fill="#012957"/>
      <path id="Caminho_4" data-name="Caminho 4" d="M327.628,23.043a6.93,6.93,0,0,1-2.953-2.332,5.92,5.92,0,0,1-1.074-3.524H327.7a3.692,3.692,0,0,0,1.191,2.484,4.223,4.223,0,0,0,2.97.973,4.573,4.573,0,0,0,3.088-.956,3.111,3.111,0,0,0,1.108-2.467,2.7,2.7,0,0,0-.689-1.913,4.614,4.614,0,0,0-1.712-1.141,25.779,25.779,0,0,0-2.836-.873,26.49,26.49,0,0,1-3.708-1.225,6.113,6.113,0,0,1-2.433-1.93,5.569,5.569,0,0,1-1.008-3.491,6.2,6.2,0,0,1,1.008-3.524A6.424,6.424,0,0,1,327.495.806,10.244,10.244,0,0,1,331.69,0,8.746,8.746,0,0,1,337.245,1.7a6.256,6.256,0,0,1,2.4,4.649h-4.228a3.067,3.067,0,0,0-1.209-2.182,4.468,4.468,0,0,0-2.921-.906A4.142,4.142,0,0,0,328.6,4.1a2.924,2.924,0,0,0-1.041,2.416,2.453,2.453,0,0,0,.654,1.762,4.616,4.616,0,0,0,1.662,1.091,25.705,25.705,0,0,0,2.752.873,28.768,28.768,0,0,1,3.776,1.275,6.3,6.3,0,0,1,2.484,1.963,5.646,5.646,0,0,1,1.023,3.541,6.365,6.365,0,0,1-.957,3.356,6.9,6.9,0,0,1-2.786,2.534,9.187,9.187,0,0,1-4.313.957,10.44,10.44,0,0,1-4.229-.822" transform="translate(-265.856 -0.001)" fill="#012957"/>
      <path id="Caminho_5" data-name="Caminho 5" d="M455.8,5.117a6.422,6.422,0,0,0-2.786-2.5,10.171,10.171,0,0,0-4.548-.923h-8.055V25.02h3.826V4.814h4.228q4.33,0,4.33,3.826a3.626,3.626,0,0,1-1.074,2.8,4.667,4.667,0,0,1-3.256.99H447.3v3.121h1.158a9.969,9.969,0,0,0,4.733-.99A6.283,6.283,0,0,0,455.879,12a7.043,7.043,0,0,0,.84-3.357,6.856,6.856,0,0,0-.923-3.524" transform="translate(-361.819 -1.391)" fill="#012957"/>
      <path id="Caminho_6" data-name="Caminho 6" d="M556.146,4.628v6.847H564.2V14.6h-8.055v7.149h9.061v3.122H552.319V1.506h12.888V4.628Z" transform="translate(-453.762 -1.238)" fill="#012957"/>
      <path id="Caminho_7" data-name="Caminho 7" d="M645.323,5.774a11.352,11.352,0,0,1,4.331-4.246,12.728,12.728,0,0,1,12.619.3,10.415,10.415,0,0,1,4.213,5.186h-4.6a6.171,6.171,0,0,0-2.517-2.752,7.472,7.472,0,0,0-3.726-.906A8.148,8.148,0,0,0,651.516,4.4a7.246,7.246,0,0,0-2.836,2.987,9.6,9.6,0,0,0-1.023,4.531,9.6,9.6,0,0,0,1.023,4.531,7.353,7.353,0,0,0,2.836,3,8.042,8.042,0,0,0,4.129,1.057,7.466,7.466,0,0,0,3.726-.906,6.164,6.164,0,0,0,2.517-2.752h4.6a10.323,10.323,0,0,1-4.213,5.169,12.253,12.253,0,0,1-6.628,1.813,12.053,12.053,0,0,1-6.008-1.527,11.383,11.383,0,0,1-4.313-4.246,11.912,11.912,0,0,1-1.593-6.142,11.912,11.912,0,0,1,1.593-6.142" transform="translate(-528.861 -0.001)" fill="#012957"/>
      <path id="Caminho_8" data-name="Caminho 8" d="M805.775,1.693V4.814h-6.209V25.02H795.74V4.814H789.5V1.693Z" transform="translate(-648.615 -1.391)" fill="#012957"/>
      <path id="Caminho_9" data-name="Caminho 9" d="M913.259,15.353a6.734,6.734,0,0,0,4.078-2.534,6.987,6.987,0,0,0,1.325-4.145,6.85,6.85,0,0,0-.923-3.524,6.526,6.526,0,0,0-2.785-2.517,10.019,10.019,0,0,0-4.548-.94H902.35V25.02h3.826V4.814h4.229a4.566,4.566,0,0,1,3.256,1.024,3.733,3.733,0,0,1,1.073,2.836,3.869,3.869,0,0,1-1.091,2.887,4.434,4.434,0,0,1-3.239,1.074H909.12v3.1l5.347,9.289h4.564Z" transform="translate(-741.332 -1.391)" fill="#012957"/>
      <path id="Caminho_10" data-name="Caminho 10" d="M1028.953,20.1,1024.064,6.16l-6.555,18.706h-3.994l8.357-23.36h4.43l8.358,23.36h-4.027Z" transform="translate(-832.659 -1.237)" fill="#012957"/>
      <rect id="Retângulo_2" data-name="Retângulo 2" width="1.166" height="11.643" transform="translate(57.744 29.477)" fill="#012957"/>
      <path id="Caminho_11" data-name="Caminho 11" d="M377.09,176.829h-1.166l-6.446-9.794v9.794h-1.166V165.187h1.166l6.446,9.777v-9.777h1.166Z" transform="translate(-302.589 -135.71)" fill="#012957"/>
      <path id="Caminho_12" data-name="Caminho 12" d="M460.612,165.187,456.2,176.829h-1.333l-4.414-11.643h1.266l3.814,10.377,3.848-10.377Z" transform="translate(-370.071 -135.71)" fill="#012957"/>
      <path id="Caminho_13" data-name="Caminho 13" d="M541.694,166.058v4.348h4.414v.965h-4.414v4.414h4.914v.966h-6.08v-11.66h6.08v.966Z" transform="translate(-444.074 -135.632)" fill="#012957"/>
      <path id="Caminho_14" data-name="Caminho 14" d="M610.482,175.93a3.31,3.31,0,0,1-1.374-1.116,2.932,2.932,0,0,1-.533-1.6h1.233a2.339,2.339,0,0,0,.749,1.491,2.7,2.7,0,0,0,1.949.641,2.739,2.739,0,0,0,1.874-.608,1.963,1.963,0,0,0,.691-1.54,1.818,1.818,0,0,0-.383-1.208,2.346,2.346,0,0,0-.949-.683,14.638,14.638,0,0,0-1.566-.492,13.749,13.749,0,0,1-1.849-.616,2.936,2.936,0,0,1-1.166-.933,2.761,2.761,0,0,1-.483-1.716,2.853,2.853,0,0,1,.466-1.607,3.129,3.129,0,0,1,1.316-1.108,4.533,4.533,0,0,1,1.949-.4,4.058,4.058,0,0,1,2.607.791,2.975,2.975,0,0,1,1.14,2.041h-1.266a2.1,2.1,0,0,0-.783-1.274,3.1,3.1,0,0,0-3.548,0,1.846,1.846,0,0,0-.7,1.524,1.761,1.761,0,0,0,.382,1.182,2.447,2.447,0,0,0,.958.684,14.238,14.238,0,0,0,1.557.5,14.075,14.075,0,0,1,1.832.625,2.989,2.989,0,0,1,1.183.941,2.733,2.733,0,0,1,.483,1.7,3,3,0,0,1-.434,1.549,3.164,3.164,0,0,1-1.283,1.183,4.291,4.291,0,0,1-2.032.45,4.829,4.829,0,0,1-2.024-.4" transform="translate(-499.979 -135.094)" fill="#012957"/>
      <path id="Caminho_15" data-name="Caminho 15" d="M690.516,165.187v.966h-3.231v10.676h-1.166V166.153h-3.248v-.966Z" transform="translate(-561.017 -135.71)" fill="#012957"/>
      <path id="Caminho_16" data-name="Caminho 16" d="M770.2,166.024v11.493H769.03V168.34l-4.1,9.178h-.849l-4.1-9.144v9.144H758.82V166.024h1.233l4.448,9.961,4.448-9.961Z" transform="translate(-623.413 -136.398)" fill="#012957"/>
      <path id="Caminho_17" data-name="Caminho 17" d="M861.912,166.058v4.348h4.414v.965h-4.414v4.414h4.914v.966h-6.08v-11.66h6.08v.966Z" transform="translate(-707.151 -135.632)" fill="#012957"/>
      <path id="Caminho_18" data-name="Caminho 18" d="M939.81,176.829h-1.166l-6.446-9.794v9.794h-1.166V165.187H932.2l6.446,9.777v-9.777h1.166Z" transform="translate(-764.896 -135.71)" fill="#012957"/>
      <path id="Caminho_19" data-name="Caminho 19" d="M1021.38,165.187v.966h-3.231v10.676h-1.166V166.153h-3.248v-.966Z" transform="translate(-832.84 -135.71)" fill="#012957"/>
      <path id="Caminho_20" data-name="Caminho 20" d="M1089.941,175.93a3.308,3.308,0,0,1-1.374-1.116,2.929,2.929,0,0,1-.533-1.6h1.232a2.34,2.34,0,0,0,.75,1.491,2.7,2.7,0,0,0,1.949.641,2.737,2.737,0,0,0,1.874-.608,1.963,1.963,0,0,0,.692-1.54,1.818,1.818,0,0,0-.383-1.208,2.345,2.345,0,0,0-.949-.683,14.628,14.628,0,0,0-1.566-.492,13.733,13.733,0,0,1-1.849-.616,2.934,2.934,0,0,1-1.166-.933,2.759,2.759,0,0,1-.483-1.716,2.854,2.854,0,0,1,.466-1.607,3.132,3.132,0,0,1,1.316-1.108,4.533,4.533,0,0,1,1.949-.4,4.058,4.058,0,0,1,2.607.791,2.974,2.974,0,0,1,1.14,2.041h-1.266a2.1,2.1,0,0,0-.783-1.274,3.1,3.1,0,0,0-3.548,0,1.847,1.847,0,0,0-.7,1.524,1.76,1.76,0,0,0,.382,1.182,2.446,2.446,0,0,0,.958.684,14.254,14.254,0,0,0,1.557.5,14.078,14.078,0,0,1,1.832.625,2.99,2.99,0,0,1,1.183.941,2.734,2.734,0,0,1,.483,1.7,2.994,2.994,0,0,1-.434,1.549A3.162,3.162,0,0,1,1094,175.88a4.291,4.291,0,0,1-2.032.45,4.83,4.83,0,0,1-2.024-.4" transform="translate(-893.881 -135.094)" fill="#012957"/>
    </g>
  </g>
</svg>
